<svg width="487" height="285" viewBox="0 0 487 285" fill="none" xmlns="http://www.w3.org/2000/svg">
<g clip-path="url(#clip0_39_93)">
<path d="M121.45 1.64999C126.57 1.56999 132.42 1.78999 138.81 2.54999C144.85 3.26999 150.28 4.33999 155.03 5.51999L135.6 11.53" fill="#004996"/>
<g style="mix-blend-mode:multiply" opacity="0.29">
<path d="M123.56 284.25C185.985 284.25 236.59 274.996 236.59 263.58C236.59 252.164 185.985 242.91 123.56 242.91C61.135 242.91 10.5298 252.164 10.5298 263.58C10.5298 274.996 61.135 284.25 123.56 284.25Z" fill="#8CD9DA"/>
</g>
<path d="M156.33 106.74C156.33 106.63 156.31 106.52 156.3 106.41C156.27 106.1 156.24 105.79 156.2 105.49C156.15 105.1 156.09 104.72 156.02 104.34C155.95 103.98 155.88 103.62 155.79 103.27C155.71 102.93 155.62 102.6 155.53 102.27C155.44 101.94 155.33 101.62 155.22 101.3C155.11 100.98 155 100.67 154.87 100.36C154.75 100.05 154.62 99.74 154.48 99.44C154.34 99.13 154.19 98.83 154.04 98.53C153.88 98.22 153.71 97.92 153.54 97.63C153.36 97.32 153.17 97.02 152.98 96.73C152.77 96.41 152.55 96.1 152.32 95.79C152.07 95.46 151.81 95.13 151.53 94.82C151.22 94.46 150.89 94.12 150.56 93.79C150.14 93.38 149.7 93 149.25 92.64C146.77 90.67 143.81 89.5 140.66 89.39L132.9 89.12C134.96 96.46 138.13 112.76 131.18 127.32L141.66 127.69C141.72 127.69 141.77 127.67 141.83 127.67C142.18 127.62 142.52 127.56 142.86 127.48C143.18 127.41 143.49 127.33 143.8 127.24C144.1 127.15 144.4 127.05 144.69 126.95C144.98 126.85 145.26 126.73 145.54 126.61C145.82 126.49 146.09 126.36 146.36 126.22C146.63 126.08 146.9 125.94 147.16 125.78C147.42 125.62 147.69 125.46 147.94 125.29C148.21 125.11 148.47 124.93 148.72 124.74C148.99 124.54 149.25 124.33 149.5 124.11C149.77 123.88 150.03 123.64 150.29 123.39C150.57 123.12 150.84 122.85 151.1 122.56C151.39 122.24 151.67 121.91 151.95 121.56C152.28 121.15 152.59 120.72 152.88 120.27C153.28 119.67 153.65 119.03 153.99 118.38C154.99 116.45 155.7 114.31 156.08 112.05C156.2 111.31 156.29 110.55 156.34 109.79C156.37 109.24 156.39 108.69 156.38 108.14C156.38 107.68 156.36 107.21 156.32 106.75L156.33 106.74Z" fill="#66B2C4" stroke="#004996" stroke-width="6.26" stroke-miterlimit="10"/>
<path d="M132.02 123.87C131.82 124.78 131.58 125.69 131.29 126.58C132.12 126.28 133.39 125.7 135.2 124.51C134.16 124.33 133.1 124.12 132.02 123.86V123.87Z" fill="#004996"/>
<path d="M141.36 116.8C138.89 116.19 136.19 115.42 133.19 113.97C133.07 116.08 132.92 118.15 132.66 120.19C134.56 120.94 136.47 121.42 138.18 121.81C139.77 119.97 140.44 118.69 141.36 116.81V116.8Z" fill="#004996"/>
<path d="M143.05 89.73H143.34C142.47 89.54 141.57 89.42 140.66 89.39L132.87 89.12C133.53 89.16 134.39 89.33 135.05 89.37C135.07 89.37 138.71 89.56 143.05 89.74V89.73Z" fill="#004996"/>
<path d="M143.17 106.23C140.69 105.6 137.68 104.73 133.86 103.16C133.82 105.14 133.62 107.13 133.48 109.13C136.92 110.97 140.07 111.96 142.72 112.67C143.27 110.05 143.26 108.49 143.17 106.24V106.23Z" fill="#004996"/>
<path d="M130.81 92.07C133.56 92.56 135.52 92.87 137.21 93.12C135.47 91.51 134.32 90.89 132.62 90.07C131.54 89.97 130.47 89.87 129.39 89.76C129.87 90.52 130.35 91.29 130.81 92.06V92.07Z" fill="#004996"/>
<path d="M139.82 96.22C137.71 95.84 135.32 95.37 132.18 94.64C132.55 95.43 132.89 96.24 133.14 97.07C133.35 97.78 133.49 98.49 133.61 99.2C137.13 100.43 139.99 101.17 142.37 101.73C141.63 99.24 140.91 97.99 139.83 96.22H139.82Z" fill="#004996"/>
<path d="M138.65 90.58C140.79 91.66 142.15 92.94 142.16 92.96C142.45 93.24 142.74 93.77 143.13 93.89C143.13 93.89 146.34 94.28 151 94.54L151.3 94.56C150.01 93.13 148.51 91.96 146.89 91.09C146.8 91.06 146.66 91.08 146.56 91.08C143.26 90.93 140.18 90.71 139.18 90.63L138.65 90.59V90.58Z" fill="#004996"/>
<path d="M145.59 97.1C146.89 99.29 147.34 100.71 147.93 102.8C150.59 103.21 152.81 103.45 155.57 103.63L155.88 103.65C155.42 101.54 154.66 99.58 153.67 97.83C150.4 97.65 148.01 97.39 146.1 97.16L145.59 97.1Z" fill="#004996"/>
<path d="M139.89 125.14C137.84 126.43 136.55 126.8 134.66 127.26C136.51 127.38 138.41 127.48 141.66 127.62H142C143.9 127.33 145.69 126.66 147.31 125.69C144.04 125.53 141.95 125.35 140.33 125.19L139.89 125.15V125.14Z" fill="#004996"/>
<path d="M149.04 107.41L148.55 107.33C148.62 110.06 148.33 111.56 147.84 113.72C150.32 114.12 152.45 114.35 155.2 114.53L155.52 114.55C156.1 112.54 156.41 110.39 156.39 108.19C153.14 107.99 150.85 107.68 149.04 107.4V107.41Z" fill="#004996"/>
<path d="M146.34 117.75C145.19 120.02 144.3 121.1 142.96 122.61C145.28 122.91 147.35 123.09 150.1 123.25L150.43 123.27C151.81 121.91 153 120.3 153.94 118.51C150.74 118.32 148.54 118.06 146.81 117.82L146.35 117.75H146.34Z" fill="#004996"/>
<path d="M216.53 93.44C220.45 137.86 166.7 234.15 154.11 255.17C138.14 237.97 66.4699 158.46 62.5599 114.04C58.1799 64.41 89.1499 19.4 131.61 13.72C174.06 8.03998 212.15 43.8 216.53 93.43V93.44ZM142.46 136.7C155.71 134.93 165.39 120.87 164.02 105.37C162.65 89.87 150.87 80.48 137.5 80.48C124.13 80.48 114.57 96.43 115.94 111.94C117.31 127.44 125.87 136.7 142.46 136.7Z" fill="#F5EFDA"/>
<path d="M3.20002 111.54C3.02002 109.12 2.92002 106.71 2.89002 104.32C2.86002 101.44 2.93002 98.58 3.11002 95.75C3.36002 91.78 3.80002 87.87 4.44002 84.02C6.39002 72.3 10.1 61.2 15.27 51.18C17.03 47.77 18.96 44.49 21.04 41.35C22.57 39.05 24.18 36.82 25.87 34.68C27.28 32.89 28.75 31.17 30.26 29.5C31.61 28.01 33.01 26.58 34.45 25.19C35.78 23.91 37.15 22.67 38.55 21.48C39.88 20.35 41.23 19.26 42.62 18.22C43.95 17.22 45.3 16.26 46.67 15.35C48 14.46 49.35 13.62 50.73 12.81C52.09 12.01 53.48 11.26 54.88 10.54C56.27 9.82998 57.69 9.15998 59.12 8.53998C60.57 7.90998 62.05 7.31998 63.54 6.76998C65.07 6.20998 66.61 5.70998 68.18 5.24998C69.79 4.77998 71.43 4.35998 73.08 3.98998C74.84 3.59998 76.63 3.26998 78.43 3.00998C78.72 2.96998 79.01 2.92998 79.3 2.88998L129.19 4.81998C128.9 4.85998 130.22 4.78998 129.93 4.81998C128.13 5.07998 126.34 5.40998 124.58 5.79998C122.93 6.16998 121.3 6.57998 119.68 7.05998C118.12 7.51998 116.57 8.02998 115.04 8.57998C113.55 9.11998 112.08 9.70998 110.62 10.35C109.19 10.97 107.77 11.64 106.38 12.35C104.98 13.06 103.59 13.82 102.23 14.62C100.86 15.42 99.5 16.27 98.17 17.16C96.79 18.08 95.44 19.03 94.12 20.03C92.74 21.07 91.38 22.16 90.05 23.29C88.65 24.48 87.29 25.72 85.95 27C84.51 28.38 83.12 29.82 81.76 31.31C80.24 32.98 78.78 34.7 77.37 36.49C75.68 38.63 74.06 40.86 72.54 43.16C70.45 46.3 68.53 49.58 66.77 52.99C61.6 63.01 57.88 74.1 55.94 85.82C55.3 89.67 54.85 93.58 54.61 97.55C54.43 100.38 54.36 103.24 54.39 106.12C54.42 108.51 54.52 110.92 54.7 113.34C54.74 113.91 54.79 114.48 54.84 115.06C54.91 115.88 55 116.71 55.12 117.55C55.27 118.66 55.45 119.78 55.66 120.91C55.88 122.11 56.14 123.33 56.44 124.57C56.77 125.97 57.15 127.39 57.57 128.83C58.02 130.37 58.52 131.93 59.06 133.51C59.71 135.4 60.42 137.31 61.19 139.24C62.11 141.55 63.12 143.89 64.2 146.25C65.52 149.14 66.95 152.06 68.48 155C70.46 158.82 72.61 162.68 74.88 166.55C78.03 171.91 81.42 177.29 84.97 182.62C90.39 190.77 96.17 198.8 101.96 206.46C112.41 220.28 122.92 232.87 131.51 242.74C142.09 254.9 150.08 263.24 151.13 264.33H100.64C99.59 263.25 90.59 253.09 80.01 240.92C71.42 231.05 60.92 218.46 50.46 204.64C44.67 196.98 38.89 188.95 33.47 180.8C29.93 175.47 26.53 170.09 23.38 164.73C21.11 160.86 18.96 157 16.98 153.18C15.45 150.24 14.02 147.32 12.7 144.43C11.62 142.07 10.62 139.73 9.69002 137.42C8.92002 135.49 8.21002 133.58 7.56002 131.69C7.02002 130.11 6.52002 128.55 6.07002 127.01C5.65002 125.57 5.27002 124.15 4.94002 122.75C4.65002 121.52 4.39002 120.3 4.16002 119.09C3.95002 117.96 3.77002 116.84 3.62002 115.73C3.51002 114.89 3.42002 114.06 3.34002 113.24C3.29002 112.67 3.24002 112.1 3.20002 111.52V111.54Z" fill="#66B2C4" stroke="#004996" stroke-width="5.78" stroke-miterlimit="10"/>
<path d="M144.56 258.88H98.3599V263.24H144.56V258.88Z" fill="#004996"/>
<path d="M298.57 51.49C288.47 51.49 280.8 54.24 275.58 59.75C270.36 65.26 267.75 72.84 267.75 82.48C267.75 103.21 278.02 113.58 298.57 113.58C308.65 113.58 316.29 110.84 321.49 105.32C326.68 99.84 329.26 92.2 329.26 82.48C329.26 61.81 319.01 51.49 298.57 51.49ZM311.15 95.27C308.94 98.13 304.72 99.57 298.57 99.57C292.42 99.57 288.3 98.13 286.02 95.27C283.75 92.45 282.63 88.16 282.63 82.48C282.63 76.8 283.75 72.54 286.02 69.74C288.3 66.92 292.48 65.53 298.57 65.53C304.66 65.53 308.94 66.92 311.15 69.74C313.4 72.54 314.52 76.81 314.52 82.48C314.52 88.15 313.4 92.45 311.15 95.27Z" fill="#004996"/>
<path d="M363.56 51.49C351.24 51.49 341.41 52.92 334.08 55.78V113.58H348.82V67.03C352.85 65.96 357.66 65.43 363.3 65.43C367.76 65.43 371.16 66.36 373.48 68.24C375.81 70.12 376.97 73.38 376.97 78.02V113.58H391.58V77.62C391.58 60.2 382.24 51.49 363.56 51.49Z" fill="#004996"/>
<path d="M360.39 193.88L345.38 240.79L330.5 193.88H315.22L300.21 240.79L285.33 193.88H270.05L292.56 260.08H307.98L322.04 218.65L321.27 210.77L323.31 218.37V218.39L337.73 260.08H353.15L375.67 193.88H360.39Z" fill="#004996"/>
<path d="M397 196.63C392.45 196.63 385.98 197.58 381.27 198.48L376.12 213.61C381.39 211.56 389.35 210.03 396.32 210.03C405.62 210.03 410.26 213.02 410.26 219.01V219.88H398.2C380.15 219.88 371.13 226.8 371.13 240.66C371.13 254.52 380.24 261.56 398.47 261.56C408.47 261.56 417.28 260.18 424.87 257.41V216.52C424.87 200.54 415.58 196.63 397 196.63ZM410.26 232.02V247.62C406.96 248.51 402.85 248.96 397.93 248.96C393.91 248.96 390.9 248.38 388.89 247.22C386.87 246.06 385.87 243.69 385.87 240.12C385.87 236.9 386.83 234.6 388.75 233.22C390.67 231.83 393.78 231.13 398.07 231.13H410.26L415.18 231.09L410.26 232.02Z" fill="#004996"/>
<path d="M346.01 121.03C343.6 120.52 340.93 120.29 338 120.29C328.91 120.29 321.22 122.12 314.96 125.78C310.75 122.12 305.18 120.29 298.2 120.29C286.32 120.29 276.95 121.7 270.05 124.58V182.37H284.81V135.83C288.29 134.75 292.58 134.23 297.66 134.23C301.59 134.23 304.6 135.11 306.65 136.9C308.7 138.7 309.73 141.9 309.73 146.56V182.37H324.34V147.09C324.34 143.33 323.89 140.13 322.99 137.44C323.01 137.43 323.02 137.42 323.04 137.41C322.88 136.99 322.7 136.57 322.51 136.16C321.75 134.55 320.73 133.02 319.4 131.77C320.91 132.8 322.2 134.18 323.25 135.73C323.51 136.11 323.76 136.51 323.99 136.91C327.46 135.11 332.01 134.23 337.62 134.23C341.36 134.23 344.24 135.13 346.25 136.97C348.28 138.8 349.28 142.01 349.28 146.56V182.37H364.02V146.15C364.02 131.82 358.01 123.43 346.01 121.03Z" fill="#004996"/>
<path d="M428.24 121.02L401.37 190.52H386.01L387.36 187.03L392.51 173.7L394.63 168.22L395.68 165.51L395.39 167.02L398.37 158.54L398.59 157.97L412.88 121.02H428.24Z" fill="#004996"/>
<path d="M401.64 162.92L393.83 175.89L392.51 173.7L387.36 165.15V165.14L360.21 121.03H375.87L394.64 151.54V151.55L395.66 153.2L397.47 156.14L395.68 165.51L395.39 167.02L398.37 158.54L398.58 157.95L398.59 157.97L401.64 162.92Z" fill="#004996"/>
<path d="M486.77 193.88L459.9 263.37H444.54L445.89 259.89L451.04 246.55L453.16 241.07L454.21 238.35L453.92 239.87L456.9 231.41L457.13 230.81L471.41 193.88H486.77Z" fill="#004996"/>
<path d="M460.18 235.77L452.36 248.74L451.04 246.55L445.89 238.01V237.99L418.74 193.89H434.4L453.17 224.39V224.41L454.2 226.06L456.01 228.99L454.21 238.35L453.92 239.87L456.9 231.41L457.11 230.79L457.13 230.81L460.18 235.77Z" fill="#004996"/>
<path d="M175.3 266.67V258.4H172.34V256.89H179.98V258.4H177.02V266.67H175.3Z" fill="#004996"/>
<path d="M189.88 266.67V259.12L186.89 266.67H186.16L183.15 259.12V266.67H181.43V256.89H183.85L186.52 263.61L189.18 256.89H191.6V266.67H189.88Z" fill="#004996"/>
<path d="M131.61 13.73C134.73 13.08 137.91 12.6 141.13 12.42L143.55 12.3L145.97 12.32C147.59 12.29 149.2 12.48 150.83 12.57C157.32 13.16 163.71 14.87 169.83 17.3C182.04 22.33 192.79 30.82 201.05 41.24C209.38 51.63 215.21 63.94 218.54 76.82C218.99 78.43 219.35 80.05 219.67 81.68C220.04 83.3 220.29 84.95 220.56 86.59C221.08 89.89 221.47 93.13 221.6 96.66C221.81 103.56 220.94 110.2 219.75 116.67C218.5 123.14 216.85 129.46 214.98 135.67C213.03 141.86 210.92 147.97 208.62 153.98C203.96 165.99 198.72 177.72 193.02 189.18C187.33 200.65 181.24 211.9 174.77 222.92C168.23 233.9 161.54 244.78 154.09 255.16C165.18 232.19 175.96 209.18 185.87 185.9C188.36 180.08 190.73 174.23 193.07 168.37C195.37 162.5 197.61 156.61 199.71 150.69C203.85 138.85 207.63 126.87 209.92 114.8C211.08 108.79 211.85 102.73 211.73 96.9C211.68 94.07 211.39 90.98 210.97 87.98C210.75 86.48 210.56 84.97 210.25 83.49C209.97 82 209.71 80.5 209.34 79.03C206.64 67.22 201.81 55.84 194.77 45.92C187.8 35.97 178.61 27.5 167.75 21.7C162.32 18.81 156.48 16.63 150.39 15.27C148.86 14.98 147.33 14.6 145.78 14.42L143.45 14.09L141.1 13.89C139.53 13.7 137.95 13.7 136.36 13.64C135.57 13.59 134.78 13.64 133.98 13.66L131.59 13.7L131.61 13.73Z" fill="white"/>
<path d="M137.5 80.49C130.97 83.53 126.79 88.36 124.15 93.73C121.54 99.12 120.44 105.05 120.9 110.88C121.34 116.69 123.17 122.37 126.67 127.08C130.16 131.79 135.33 135.5 142.46 136.71C139.19 138.26 135.25 138.58 131.45 137.8C127.64 137.02 124.02 135.12 121 132.53C117.97 129.94 115.57 126.64 113.88 123.04C113.66 122.59 113.45 122.14 113.25 121.68L112.75 120.28L112.26 118.87C112.1 118.4 112 117.91 111.87 117.43C111.64 116.46 111.39 115.5 111.28 114.52C111.16 113.54 110.95 112.56 110.92 111.58C110.3 103.7 112.7 95.58 117.59 89.44C120.04 86.39 123.12 83.83 126.6 82.2C130.07 80.58 133.93 79.86 137.49 80.49H137.5Z" fill="white"/>
<path d="M137.96 263.58L136.99 262.56C134.15 262.65 133.16 262.71 127.67 263.01L127.87 263.22L137.96 263.58ZM122.59 263.04C122.39 262.83 122.26 262.69 111.52 261.66L112.49 262.68L122.58 263.04H122.59ZM150.78 264.03C150.57 263.81 150.08 263.3 149.35 262.53C145.81 262.43 142.93 262.45 141.98 262.46C142.35 262.85 142.85 263.37 143.22 263.77L150.78 264.03ZM107.19 262.5C106.82 262.11 106.48 261.3 105.95 261.19C105.95 261.19 102.75 260.93 98.3299 260.73L97.8299 260.71C98.4299 261.34 98.8699 261.8 99.1499 262.1L99.2699 262.22H99.5799L107.19 262.5ZM126.47 261.78C130.25 261.22 132.96 260.98 135.31 260.81C134.27 259.69 132.88 258.2 131.84 257.07C130.39 257.27 127.01 257.75 123.77 258.89C124.58 259.76 125.66 260.91 126.47 261.77V261.78ZM121.19 261.58C120.38 260.72 119.3 259.56 118.49 258.7C112.77 257.23 108.29 256.49 106.39 256.17C107.43 257.29 108.82 258.79 109.86 259.91C113.13 260.32 116.31 260.76 121.2 261.59L121.19 261.58ZM140.67 260.56C143.77 260.48 146.29 260.54 147.37 260.56H147.51C146.46 259.44 145.2 258.07 143.74 256.48C140.19 256.41 137.46 256.57 136.56 256.62C137.65 257.81 139.12 259.39 140.22 260.57C140.36 260.57 140.54 260.57 140.67 260.56ZM100.53 255.35C100.53 255.35 97.2899 254.94 92.7299 254.69L92.2299 254.66C93.4299 255.97 94.4999 257.13 95.4299 258.13C95.6099 258.32 95.7699 258.72 96.0199 258.75C98.5599 259.1 101.14 259.04 103.69 259.26L104.19 259.31C103.09 258.13 101.97 256.09 100.53 255.36V255.35ZM115.64 255.61C114.23 254.07 112.37 252.01 110.98 250.46C105.51 248.54 101.12 247.48 97.9099 246.77C99.4999 248.56 101.65 250.94 103.25 252.73C106.39 253.31 110.32 254.1 115.64 255.61ZM120.92 255.79C123.75 254.58 126.45 254.02 128.71 253.63C127.1 251.85 124.97 249.46 123.37 247.67C121.24 248.19 118.5 249 116.26 250.65C117.65 252.2 119.52 254.25 120.92 255.79ZM133.77 253.05C136.73 252.84 139.25 252.87 140.32 252.88H140.46C138.76 250.99 136.88 248.9 134.87 246.62C131.24 246.57 128.68 246.85 127.83 246.93C129.47 248.78 131.68 251.24 133.33 253.08C133.46 253.08 133.63 253.06 133.76 253.05H133.77ZM91.7999 245.66C91.7999 245.66 88.4999 245.11 83.8599 244.82L83.3599 244.79C85.0099 246.67 86.5799 248.42 88.0299 250.03C88.3099 250.34 88.5599 250.97 88.9699 251.05C89.1199 251.08 89.3299 251.07 89.4899 251.08C92.8499 251.26 95.8199 251.62 96.7899 251.74L97.3099 251.81C95.6499 249.97 93.9899 246.83 91.8099 245.66H91.7999ZM112.1 245.97C114.39 244.21 116.93 243.39 119.1 242.81C117.08 240.49 114.42 237.37 112.42 235.04C110.37 235.73 107.79 236.8 105.99 238.96C107.81 241.07 110.27 243.87 112.1 245.97ZM106.82 245.78C104.97 243.69 102.54 240.87 100.71 238.77C94.9199 236.33 90.3199 235.02 86.9599 234.14C88.9499 236.48 91.6399 239.58 93.6399 241.91C96.9799 242.68 101.15 243.74 106.82 245.78ZM123.95 241.96C126.81 241.64 129.32 241.65 130.4 241.65H130.54C128.36 239.13 126.05 236.44 123.67 233.61C120.04 233.59 117.55 233.95 116.73 234.07C118.76 236.46 121.49 239.63 123.53 242.01C123.66 242 123.82 241.98 123.95 241.96ZM80.6999 232.8C80.6999 232.8 77.3899 232.15 72.6499 231.82L72.1499 231.79C74.1099 234.12 76.0199 236.36 77.8499 238.48C78.1999 238.89 78.6799 239.43 79.0299 239.83C81.7999 239.99 84.0999 240.24 86.9599 240.66L87.4999 240.74C85.4399 238.37 83.4199 234.35 80.6999 232.8ZM100.91 233C102.84 230.81 105.27 229.77 107.38 229.04C105.11 226.3 102.13 222.62 99.8899 219.86C97.8999 220.68 95.4099 221.95 93.8599 224.51C95.9599 227.07 98.7999 230.46 100.91 233.01V233ZM95.6299 232.82C93.4999 230.29 90.6899 226.87 88.5799 224.32C82.6299 221.5 78.0899 220.03 74.4399 218.96C76.6699 221.73 79.6799 225.39 81.9299 228.14C85.3999 229.06 89.7399 230.34 95.6399 232.82H95.6299ZM112.11 227.98C114.91 227.57 117.42 227.56 118.49 227.56H118.63C116.14 224.54 113.59 221.39 111.01 218.14C107.4 218.14 104.93 218.56 104.12 218.71C106.37 221.53 109.42 225.25 111.7 228.04C111.82 228.02 111.99 228 112.11 227.98ZM68.0899 217.44C68.0899 217.44 64.7099 216.7 59.9999 216.35L59.4899 216.32C61.6199 218.99 63.7199 221.6 65.7799 224.12C66.1799 224.61 66.7199 225.25 67.1199 225.74C69.9099 225.92 72.2299 226.19 75.1199 226.68L75.6599 226.78C73.3599 224 71.1699 219.3 68.0799 217.45L68.0899 217.44ZM88.2599 217.57C90.0199 215.05 92.3899 213.85 94.4699 213.01C92.1099 209.97 89.0199 205.88 86.6899 202.81C84.6999 203.72 82.2299 205.13 80.7699 207.97C82.9899 210.87 86.0099 214.69 88.2599 217.57ZM82.9799 217.38C80.7099 214.52 77.7399 210.66 75.4899 207.78C69.4799 204.68 64.9099 203.07 61.2299 201.9C63.5299 204.98 66.6699 209.04 69.0099 212.1C72.5399 213.13 76.9499 214.57 82.9799 217.37V217.38ZM99.1199 211.77C101.95 211.3 104.42 211.28 105.47 211.27H105.61C103 207.89 100.37 204.42 97.7599 200.88C94.1899 200.88 91.6999 201.37 90.8899 201.53C93.2099 204.65 96.3599 208.75 98.7099 211.85C98.8299 211.83 98.9999 211.8 99.1199 211.78V211.77ZM54.8599 200.26C54.8599 200.26 51.4499 199.46 46.7499 199.09L46.2399 199.05C48.3799 201.96 50.5399 204.83 52.6999 207.63C53.1199 208.17 53.6799 208.89 54.0999 209.44C56.8499 209.63 59.1699 209.92 62.1299 210.47L62.6799 210.57C60.2999 207.5 58.1399 202.33 54.8599 200.25V200.26ZM75.0199 200.31C76.7699 197.57 79.1499 196.27 81.2399 195.36C78.9399 192.14 75.9599 187.79 73.6999 184.55C71.6599 185.52 69.1199 187.01 67.6199 190.02C69.7999 193.14 72.7999 197.23 75.0299 200.32L75.0199 200.31ZM69.7499 200.13C67.4899 197.07 64.5599 192.92 62.3399 189.83C56.4199 186.55 51.8899 184.87 48.2499 183.65C50.4699 186.92 53.5199 191.22 55.7899 194.46C59.3099 195.56 63.7199 197.09 69.7499 200.12V200.13ZM85.9199 194.02C88.7099 193.51 91.2099 193.48 92.2799 193.47H92.4199C89.8599 189.86 87.3299 186.2 84.8799 182.51C81.3199 182.51 78.7899 183.02 77.9599 183.19C80.1799 186.49 83.2399 190.83 85.5099 194.1C85.6299 194.08 85.7999 194.04 85.9199 194.02ZM41.9399 181.91C41.9399 181.91 38.5599 181.09 33.8799 180.71L33.3699 180.67C35.3899 183.7 37.4499 186.72 39.5499 189.71C39.9599 190.29 40.5099 191.06 40.9199 191.64C43.7099 191.84 46.0299 192.15 48.9399 192.72L49.4899 192.83C47.1799 189.59 45.2499 184.13 41.9399 181.92V181.91ZM62.1399 181.96C64.0099 179.11 66.4699 177.76 68.6299 176.81C66.5399 173.53 63.8699 169.09 61.8499 165.77C59.7099 166.75 57.0299 168.27 55.3199 171.32C57.3199 174.54 60.0899 178.77 62.1499 181.96H62.1399ZM56.8699 181.77C54.7699 178.61 52.0899 174.33 50.0499 171.14C44.4099 167.82 39.9799 166.11 36.3999 164.87C38.3699 168.22 41.1399 172.6 43.1799 175.91C46.6499 177.05 50.9799 178.63 56.8699 181.77ZM73.3899 175.43C76.1999 174.9 78.7199 174.87 79.7999 174.85H79.9399C77.5999 171.14 75.3599 167.42 73.2399 163.72C69.5999 163.72 67.0699 164.24 66.2399 164.4C68.1999 167.77 70.9499 172.18 72.9699 175.5C73.0899 175.48 73.2599 175.44 73.3799 175.42L73.3899 175.43ZM30.1999 163.13C27.3399 162.5 25.0299 162.15 22.2199 161.92L21.7199 161.88C23.4599 164.93 25.2899 167.98 27.1799 171.04C27.5499 171.63 28.0499 172.42 28.4299 173.01C31.2199 173.21 33.5299 173.53 36.3999 174.11L36.9399 174.22C34.8599 170.93 32.2199 166.45 30.2099 163.12L30.1999 163.13ZM50.4699 163.16C52.5899 160.31 55.2099 158.96 57.4799 158C55.7499 154.79 53.6299 150.41 51.9899 147.15C49.5599 148.16 46.8099 149.6 44.7299 152.58C46.3699 155.79 48.7399 159.99 50.4699 163.16ZM45.1899 162.97C43.3999 159.83 41.1699 155.57 39.4499 152.39C34.1699 149.13 29.9599 147.46 26.5299 146.25C28.0899 149.55 30.3599 153.85 32.0199 157.1C35.3899 158.24 39.5899 159.82 45.1899 162.97ZM62.4099 156.64C65.2899 156.12 67.8299 156.09 68.9099 156.07H69.0499C67.1199 152.4 65.3299 148.76 63.7299 145.18C60.0699 145.18 57.4499 145.67 56.5999 145.83C58.1299 149.14 60.3599 153.46 61.9899 156.72C62.1199 156.7 62.2899 156.66 62.4199 156.64H62.4099ZM20.5699 144.56C17.7799 143.95 15.5099 143.61 12.7199 143.38L12.2199 143.35C13.5399 146.3 14.9899 149.29 16.5299 152.3C16.8299 152.89 17.2499 153.66 17.5499 154.25C20.3299 154.45 22.6199 154.76 25.4299 155.34L25.9599 155.45C24.2599 152.23 22.1699 147.84 20.5699 144.56ZM40.9199 144.62C43.4399 141.87 46.2799 140.57 48.7299 139.67C47.5099 136.63 46.1499 132.49 45.0599 129.4C42.4099 130.35 39.3599 131.69 36.7899 134.49C37.9199 137.57 39.6699 141.59 40.9199 144.63V144.62ZM35.6399 144.44C34.2999 141.44 32.7399 137.35 31.5099 134.3C26.7699 131.21 22.8299 129.64 19.5999 128.5C20.5699 131.63 22.1499 135.7 23.2699 138.77C26.4799 139.86 30.4599 141.38 35.6399 144.43V144.44ZM53.8899 138.37C56.8799 137.89 59.4299 137.85 60.5199 137.84H60.6599C59.3099 134.34 58.1599 130.92 57.2399 127.58C53.5299 127.58 50.8199 128.03 49.9299 128.18C50.8499 131.3 52.3699 135.37 53.4499 138.44C53.5799 138.42 53.7599 138.39 53.8899 138.37ZM13.8999 126.91C11.2299 126.34 8.99992 126.01 6.21992 125.79L5.71992 125.75C6.47992 128.49 7.38992 131.3 8.43992 134.15C8.64992 134.71 8.93992 135.45 9.14992 136C11.9199 136.2 14.1599 136.51 16.8999 137.06L17.4099 137.17C16.2299 134.14 14.9299 129.99 13.8899 126.91H13.8999ZM34.3699 127.01C37.4099 124.48 40.5599 123.29 43.2399 122.46C42.6499 119.6 42.2599 115.71 41.8799 112.81C36.4999 114.76 33.9599 116.45 32.3499 117.7C32.7899 120.52 33.7499 124.22 34.3699 127.01ZM29.0899 126.82C28.3299 124.06 27.6599 120.31 27.0699 117.51C25.0099 116.1 21.9499 114.18 16.4199 111.91C16.6499 114.82 17.3399 118.67 17.7799 121.56C20.7999 122.57 24.4999 123.99 29.0899 126.82ZM48.7199 121.28C51.8199 120.84 54.4099 120.82 55.5099 120.82H55.6499C55.2899 118.85 55.0199 116.92 54.8499 115.04C54.7199 113.59 54.6199 112.15 54.5499 110.71C50.8999 110.72 48.0099 111.24 47.0499 111.41C47.2499 114.41 47.8599 118.37 48.2499 121.35C48.3899 121.33 48.5699 121.3 48.7099 121.28H48.7199ZM11.0199 110.14C8.38992 109.5 6.22992 109.14 3.52992 108.92L3.03992 108.88C3.10992 110.32 3.20992 111.77 3.33992 113.23C3.45992 114.56 3.62992 115.91 3.83992 117.29C3.92992 117.8 4.04992 118.49 4.14992 119C6.89992 119.18 9.09992 119.47 11.7299 119.99L12.2199 120.09C11.6799 117.14 11.3399 113.14 11.0199 110.15V110.14ZM31.6399 110.17C35.3199 107.28 38.7199 105.9 41.5599 104.94C41.5899 101.64 41.8399 97.23 42.0199 93.93C39.1199 94.91 35.2999 96.43 31.5599 99.44C31.4699 102.66 31.5799 106.95 31.6399 110.17ZM26.3599 109.98C26.2299 106.76 26.2699 102.47 26.2799 99.25C22.7299 95.94 19.3799 94.25 16.5599 93.03C16.3099 96.32 16.1899 100.73 16.0999 104.04C19.0199 105.23 22.2899 106.77 26.3599 109.99V109.98ZM47.3299 103.55C50.5599 103.02 53.1599 102.99 54.2699 102.97H54.4099C54.4699 99.25 54.6999 95.57 55.1099 91.93C51.3699 91.93 48.4299 92.43 47.4599 92.6C47.1599 95.9 46.9899 100.32 46.8499 103.63C46.9899 103.61 47.1799 103.57 47.3299 103.55ZM11.4299 91.33C8.93992 90.71 6.81992 90.37 4.08992 90.14L3.59992 90.1C3.26992 93.09 3.04992 96.11 2.94992 99.16C2.93992 99.75 2.92992 100.54 2.91992 101.13C5.63992 101.33 7.78992 101.65 10.3499 102.23L10.8299 102.35C10.8999 99.04 11.2099 94.63 11.4399 91.32L11.4299 91.33ZM32.1699 91.37C36.3099 88.59 39.9499 87.27 42.9699 86.35C43.5099 83.19 44.4399 79.01 45.1199 75.87C41.8899 76.84 38.0099 78.22 33.7699 81.07C33.1899 84.14 32.6199 88.27 32.1699 91.36V91.37ZM26.8899 91.17C27.2599 88.07 27.9699 83.96 28.4899 80.88C25.3999 77.73 22.2999 76.12 19.6699 74.97C18.9199 78.09 18.1199 82.3 17.5199 85.45C20.1699 86.55 23.3499 88.09 26.8999 91.18L26.8899 91.17ZM48.9899 85.03C52.3099 84.53 54.9299 84.5 56.0499 84.49H56.1999C56.8299 80.93 57.6299 77.44 58.5799 74.02C54.8099 74.02 51.7899 74.48 50.7899 74.63C49.9999 77.75 49.1399 81.96 48.4999 85.11C48.6499 85.09 48.8399 85.06 48.9899 85.03ZM14.7599 73.36C12.3599 72.77 10.2699 72.44 7.55992 72.22L7.06992 72.19C6.28992 75.01 5.60992 77.87 5.03992 80.78C4.92992 81.35 4.79992 82.1 4.69992 82.67C7.40992 82.86 9.52992 83.17 11.9999 83.74L12.4599 83.85C13.0399 80.68 14.0199 76.5 14.7499 73.37L14.7599 73.36ZM35.5799 73.46C40.1099 70.87 43.9899 69.63 47.1899 68.76C48.1999 65.81 49.7299 61.94 50.8799 59.04C42.8799 61.13 38.7399 63.81 38.7099 63.83C36.4999 65.92 36.4899 70.57 35.5799 73.47V73.46ZM30.2999 73.28C31.1399 70.36 32.4599 66.52 33.4299 63.64C30.7899 60.71 27.8999 59.21 25.4199 58.14C24.2099 61.02 22.7999 64.93 21.7299 67.86C24.2399 68.9 27.2199 70.36 30.2999 73.27V73.28ZM53.4199 67.54C56.8399 67.08 59.4699 67.06 60.5999 67.05H60.7499C61.9099 63.73 63.2199 60.5 64.6599 57.35C60.8699 57.34 57.7599 57.75 56.7399 57.89C55.4899 60.76 54.0199 64.68 52.9099 67.6C53.0599 67.58 53.2699 67.55 53.4199 67.53V67.54ZM20.7099 56.62C18.3799 56.07 16.3299 55.76 13.6399 55.55L13.1499 55.52C11.9599 58.1 10.8599 60.75 9.86992 63.46C9.67992 63.99 9.43992 64.69 9.24992 65.22C11.9299 65.41 14.0099 65.7 16.4299 66.23L16.8799 66.33C17.9299 63.38 19.5199 59.52 20.7099 56.62ZM41.6399 56.76C46.5899 54.38 50.6499 53.27 53.9799 52.49C55.4099 49.81 57.4999 46.33 59.0599 43.73C50.7299 45.57 46.1899 47.97 46.1599 47.99C43.7899 49.76 42.9699 54.12 41.6499 56.76H41.6399ZM36.3699 56.57C37.6299 53.89 39.4999 50.41 40.8799 47.8C38.6699 45.15 35.9599 43.8 33.5999 42.83C31.9799 45.4 30.0099 48.94 28.5199 51.59C30.8899 52.55 33.6799 53.89 36.3599 56.57H36.3699ZM60.4199 51.4C63.9799 50.99 66.5899 50.98 67.7099 50.98H67.8599C69.4899 47.97 71.2599 45.07 73.1499 42.28C69.2999 42.26 66.1499 42.62 65.1099 42.74C63.4499 45.3 61.4299 48.83 59.8999 51.46C60.0599 51.44 60.2599 51.42 60.4199 51.4ZM29.0799 41.47C26.8299 40.98 24.8199 40.69 22.1299 40.49L21.6499 40.46C20.0899 42.75 18.6199 45.13 17.2399 47.57C16.9799 48.04 16.6299 48.68 16.3699 49.16C19.0099 49.34 21.0599 49.61 23.4399 50.11L23.8799 50.21C25.3499 47.54 27.4899 44.08 29.0899 41.49L29.0799 41.47ZM50.0999 41.69C55.0599 39.74 59.3499 38.7 62.0699 38.17C62.3699 38.11 62.8199 38.13 63.0899 37.97C65.6499 36.47 67.4799 32.63 69.4099 30.38C60.5999 31.95 55.8899 33.98 55.8599 33.99C53.3699 35.45 51.8099 39.35 50.1099 41.68L50.0999 41.69ZM44.8299 41.49C46.4699 39.12 48.8299 36.08 50.5799 33.8C48.7299 31.49 46.1899 30.32 43.9599 29.48C41.9799 31.68 39.5099 34.76 37.6399 37.07C39.8899 37.92 42.5099 39.12 44.8299 41.5V41.49ZM69.7299 37.04C73.2999 36.7 75.9699 36.7 77.1099 36.7H77.2499C79.3099 34.08 81.4899 31.58 83.7799 29.22C80.0199 29.18 76.7299 29.47 75.6499 29.56C73.6299 31.74 71.0999 34.8 69.1999 37.09C69.3599 37.07 69.5699 37.05 69.7299 37.04ZM39.6199 28.29C37.3699 27.85 35.3899 27.6 32.7699 27.42L32.2899 27.39C30.4099 29.33 28.5999 31.37 26.8699 33.49C26.5399 33.9 26.0999 34.46 25.7799 34.87C28.4499 35.04 30.4699 35.29 32.7499 35.73L33.1799 35.82C35.0299 33.49 37.6599 30.52 39.6299 28.29H39.6199ZM55.4199 28.39C57.3999 26.38 60.1999 23.87 62.2799 21.97C60.7399 20.07 58.3499 19.1 56.2299 18.41C53.9299 20.18 51.0099 22.71 48.8199 24.6C51.0799 25.37 53.4399 26.36 55.4199 28.39ZM60.7099 28.57C65.9399 26.94 70.4099 26.09 73.2299 25.66C73.5399 25.61 73.9899 25.63 74.2799 25.5C76.9299 24.33 79.4399 21.13 81.6899 19.31C72.5899 20.51 67.5899 22.15 67.5599 22.16C64.9799 23.3 62.7399 26.63 60.6999 28.58L60.7099 28.57ZM81.0499 24.77C84.6799 24.51 87.3699 24.53 88.5099 24.53H88.6599C91.0999 22.37 93.6299 20.35 96.2699 18.48C92.4299 18.42 89.1299 18.63 88.0499 18.69C85.7199 20.43 82.7399 22.93 80.5099 24.8C80.6699 24.79 80.8899 24.77 81.0499 24.76V24.77ZM52.0199 17.42C49.8699 17.06 47.9099 16.84 45.2599 16.68L44.7799 16.65C42.6099 18.18 40.5099 19.82 38.4799 21.56C38.0899 21.9 37.5699 22.36 37.1899 22.7C39.8499 22.86 41.8499 23.07 44.0799 23.45L44.4899 23.52C46.6799 21.6 49.7399 19.21 52.0299 17.41L52.0199 17.42ZM73.1799 17.79C78.5899 16.54 83.2399 15.9 86.1799 15.59C86.4999 15.56 86.9499 15.57 87.2599 15.47C89.9899 14.63 93.0899 12.22 95.6099 10.89C86.2499 11.67 81.0199 12.85 80.9899 12.86C78.3399 13.67 75.4999 16.28 73.1799 17.79ZM67.8999 17.6C70.1799 16.03 73.3499 14.12 75.7099 12.67C74.0199 10.75 70.1799 9.98 70.1499 9.99C67.3199 10.38 64.2799 13.16 61.7999 14.57C63.9699 15.19 66.2199 15.98 67.8999 17.6ZM94.1799 14.96C97.8599 14.79 100.56 14.82 101.72 14.84H101.87C104.63 13.21 107.48 11.74 110.41 10.45C106.54 10.37 103.21 10.48 102.11 10.52C99.5099 11.75 96.1499 13.61 93.6299 14.99C93.7999 14.99 94.0199 14.97 94.1799 14.96ZM66.0799 9.24C63.9799 8.96 62.0399 8.79 59.3899 8.64L58.9099 8.62C56.4999 9.68 54.1399 10.86 51.8499 12.16C51.4099 12.41 50.8199 12.76 50.3899 13.02C53.0499 13.16 55.0199 13.35 57.1999 13.66L57.6099 13.72C60.0899 12.27 63.5199 10.55 66.0899 9.25L66.0799 9.24ZM87.2899 9.73C92.8299 8.92 97.6399 8.53 100.7 8.35C101.03 8.33 101.47 8.35 101.8 8.29C104.62 7.79 108.19 6.31 110.95 5.53C101.577 5.83 93.6899 7.23 87.2899 9.73ZM82.0099 9.54C84.5499 8.46 88.0299 7.24 90.6299 6.32C89.2799 5.12 85.5199 4.63 85.4899 4.63C82.6299 4.84 79.0699 6.51 76.3399 7.39C78.4399 7.83 80.5799 8.4 82.0099 9.55V9.54ZM108.85 8.03C112.56 7.96 115.28 8.03 116.44 8.04H116.59C119.63 7.01 122.74 6.16 125.92 5.52C123.29 5.45 120.48 5.42 117.55 5.43C114.74 6.09 111.06 7.21 108.3 8.04C108.47 8.04 108.69 8.04 108.86 8.03H108.85ZM81.5299 4.16C79.4899 3.98 77.5799 3.85 74.9099 3.73L74.4299 3.71C71.8099 4.24 69.2399 4.91 66.7199 5.7C66.2399 5.86 65.5899 6.07 65.1099 6.23C67.7599 6.36 69.7199 6.5 71.8699 6.73L72.2699 6.77C75.0099 5.86 78.7299 4.89 81.5199 4.16H81.5299ZM102.66 3.7L92.5699 3.34L92.1699 3.39C94.8399 3.7 96.4599 4.06 97.4099 4.54L97.4799 4.58L102.66 3.7ZM103.12 4.74C109.58 4.35 115.64 4.31 117.64 4.29L118.04 4.24L107.95 3.88L102.78 4.76C102.88 4.76 103.02 4.75 103.12 4.74Z" fill="#004996"/>
<path d="M224.25 92.41C228.95 145.74 157.87 267.17 157.87 267.17L150.79 264.03C147.06 260.15 59.5498 168.4 54.8398 115.08C50.0298 60.47 84.1098 10.96 130.82 4.70998C177.52 -1.54002 219.44 37.8 224.26 92.41H224.25ZM154.12 255.17C166.71 234.15 220.45 137.86 216.54 93.44C212.16 43.81 174.06 8.04998 131.62 13.73C89.1698 19.41 58.1898 64.42 62.5698 114.05C66.4898 158.47 138.73 238.59 154.69 255.79" fill="#004996"/>
<path d="M164.02 105.38C165.39 120.88 155.71 134.93 142.46 136.71C129.2 138.48 117.31 127.32 115.94 111.82C114.57 96.32 124.24 82.27 137.5 80.49C150.75 78.72 162.65 89.88 164.02 105.38ZM141.66 127.68C150.66 126.48 157.23 116.94 156.3 106.41C155.37 95.88 147.29 88.3 138.29 89.5C129.29 90.7 122.72 100.25 123.64 110.78C124.57 121.31 132.65 128.89 141.65 127.68" fill="#004996"/>
</g>
<defs>
<clipPath id="clip0_39_93">
<rect width="486.77" height="284.25" fill="white"/>
</clipPath>
</defs>
</svg>
